<mxfile host="65bd71144e">
    <diagram id="Q8ZCVBfkGdzVq4fk389N" name="Page-1">
        <mxGraphModel dx="1892" dy="1270" grid="1" gridSize="10" guides="1" tooltips="1" connect="1" arrows="1" fold="1" page="1" pageScale="1" pageWidth="827" pageHeight="1169" math="1" shadow="0">
            <root>
                <mxCell id="0"/>
                <mxCell id="1" parent="0"/>
                <mxCell id="18" value="list: List" style="shape=umlLifeline;perimeter=lifelinePerimeter;whiteSpace=wrap;html=1;container=1;collapsible=0;recursiveResize=0;outlineConnect=0;fontFamily=Alegreya;" parent="1" vertex="1">
                    <mxGeometry x="-608" y="70" width="95" height="304" as="geometry"/>
                </mxCell>
                <mxCell id="37" value="" style="html=1;points=[];perimeter=orthogonalPerimeter;fontFamily=Alegreya;" parent="18" vertex="1">
                    <mxGeometry x="42.5" y="74" width="10" height="180" as="geometry"/>
                </mxCell>
                <mxCell id="19" value="node1: InnerNode" style="shape=umlLifeline;perimeter=lifelinePerimeter;whiteSpace=wrap;html=1;container=1;collapsible=0;recursiveResize=0;outlineConnect=0;fontFamily=Alegreya;" parent="1" vertex="1">
                    <mxGeometry x="-483" y="70" width="100" height="300" as="geometry"/>
                </mxCell>
                <mxCell id="59" value="" style="html=1;points=[];perimeter=orthogonalPerimeter;fontFamily=Alegreya;" parent="19" vertex="1">
                    <mxGeometry x="45" y="90" width="10" height="150" as="geometry"/>
                </mxCell>
                <mxCell id="20" value="node2: InnerNode" style="shape=umlLifeline;perimeter=lifelinePerimeter;whiteSpace=wrap;html=1;container=1;collapsible=0;recursiveResize=0;outlineConnect=0;fontFamily=Alegreya;" parent="1" vertex="1">
                    <mxGeometry x="-344" y="70" width="100" height="300" as="geometry"/>
                </mxCell>
                <mxCell id="62" value="" style="html=1;points=[];perimeter=orthogonalPerimeter;fontFamily=Alegreya;" parent="20" vertex="1">
                    <mxGeometry x="45" y="110" width="10" height="110" as="geometry"/>
                </mxCell>
                <mxCell id="21" value="node3: InnerNode" style="shape=umlLifeline;perimeter=lifelinePerimeter;whiteSpace=wrap;html=1;container=1;collapsible=0;recursiveResize=0;outlineConnect=0;fontFamily=Alegreya;" parent="1" vertex="1">
                    <mxGeometry x="-213" y="70" width="100" height="300" as="geometry"/>
                </mxCell>
                <mxCell id="65" value="" style="html=1;points=[];perimeter=orthogonalPerimeter;fontFamily=Alegreya;" parent="21" vertex="1">
                    <mxGeometry x="45" y="130" width="10" height="70" as="geometry"/>
                </mxCell>
                <mxCell id="24" value="" style="shape=umlLifeline;participant=umlActor;perimeter=lifelinePerimeter;whiteSpace=wrap;html=1;container=1;collapsible=0;recursiveResize=0;verticalAlign=top;spacingTop=36;outlineConnect=0;" parent="1" vertex="1">
                    <mxGeometry x="-671" y="70" width="20" height="300" as="geometry"/>
                </mxCell>
                <mxCell id="43" value="" style="html=1;points=[];perimeter=orthogonalPerimeter;" parent="24" vertex="1">
                    <mxGeometry x="5" y="60" width="10" height="210" as="geometry"/>
                </mxCell>
                <mxCell id="38" value="x()" style="html=1;verticalAlign=bottom;endArrow=block;entryX=0;entryY=0;fontFamily=Alegreya;" parent="1" source="43" target="37" edge="1">
                    <mxGeometry relative="1" as="geometry">
                        <mxPoint x="-688" y="240" as="sourcePoint"/>
                    </mxGeometry>
                </mxCell>
                <mxCell id="39" value="node1" style="html=1;verticalAlign=bottom;endArrow=open;dashed=1;endSize=8;exitX=0;exitY=0.95;fontFamily=Alegreya;" parent="1" source="37" target="43" edge="1">
                    <mxGeometry relative="1" as="geometry">
                        <mxPoint x="-703" y="276" as="targetPoint"/>
                    </mxGeometry>
                </mxCell>
                <mxCell id="60" value="x(0)" style="html=1;verticalAlign=bottom;endArrow=block;entryX=0;entryY=0;fontFamily=Alegreya;" parent="1" source="37" target="59" edge="1">
                    <mxGeometry relative="1" as="geometry">
                        <mxPoint x="-541" y="190" as="sourcePoint"/>
                    </mxGeometry>
                </mxCell>
                <mxCell id="61" value="node1" style="html=1;verticalAlign=bottom;endArrow=open;dashed=1;endSize=8;exitX=0;exitY=0.95;fontFamily=Alegreya;" parent="1" edge="1">
                    <mxGeometry relative="1" as="geometry">
                        <mxPoint x="-555.5" y="309.5" as="targetPoint"/>
                        <mxPoint x="-438" y="309.5" as="sourcePoint"/>
                    </mxGeometry>
                </mxCell>
                <mxCell id="64" value="leaf" style="html=1;verticalAlign=bottom;endArrow=open;dashed=1;endSize=8;exitX=0;exitY=0.95;fontFamily=Alegreya;" parent="1" edge="1">
                    <mxGeometry x="0.0011" relative="1" as="geometry">
                        <mxPoint x="-428" y="289.5000000000002" as="targetPoint"/>
                        <mxPoint as="offset"/>
                        <mxPoint x="-299" y="289.5000000000002" as="sourcePoint"/>
                    </mxGeometry>
                </mxCell>
                <mxCell id="66" value="x(7)" style="html=1;verticalAlign=bottom;endArrow=block;entryX=0;entryY=0;fontFamily=Alegreya;" parent="1" source="62" target="65" edge="1">
                    <mxGeometry relative="1" as="geometry">
                        <mxPoint x="-273" y="206" as="sourcePoint"/>
                    </mxGeometry>
                </mxCell>
                <mxCell id="67" value="leaf" style="html=1;verticalAlign=bottom;endArrow=open;dashed=1;endSize=8;exitX=0;exitY=0.95;fontFamily=Alegreya;" parent="1" edge="1">
                    <mxGeometry relative="1" as="geometry">
                        <mxPoint x="-289" y="269.5" as="targetPoint"/>
                        <mxPoint x="-168" y="269.5" as="sourcePoint"/>
                    </mxGeometry>
                </mxCell>
                <mxCell id="68" value="leaf: LeafNode" style="shape=umlLifeline;perimeter=lifelinePerimeter;whiteSpace=wrap;html=1;container=1;collapsible=0;recursiveResize=0;outlineConnect=0;fontFamily=Alegreya;" vertex="1" parent="1">
                    <mxGeometry x="-83" y="70" width="100" height="300" as="geometry"/>
                </mxCell>
                <mxCell id="69" value="" style="html=1;points=[];perimeter=orthogonalPerimeter;fontFamily=Alegreya;" vertex="1" parent="68">
                    <mxGeometry x="45" y="140" width="10" height="50" as="geometry"/>
                </mxCell>
                <mxCell id="70" value="x(7)" style="html=1;verticalAlign=bottom;endArrow=block;fontFamily=Alegreya;exitX=1.1;exitY=0.2;exitDx=0;exitDy=0;exitPerimeter=0;" edge="1" parent="1">
                    <mxGeometry relative="1" as="geometry">
                        <mxPoint x="-427" y="181" as="sourcePoint"/>
                        <mxPoint x="-300" y="181" as="targetPoint"/>
                    </mxGeometry>
                </mxCell>
                <mxCell id="71" value="x(7)" style="html=1;verticalAlign=bottom;endArrow=block;entryX=-0.117;entryY=0.018;fontFamily=Alegreya;entryDx=0;entryDy=0;entryPerimeter=0;exitX=0.976;exitY=0.146;exitDx=0;exitDy=0;exitPerimeter=0;" edge="1" parent="1" source="65" target="69">
                    <mxGeometry relative="1" as="geometry">
                        <mxPoint x="-157" y="211" as="sourcePoint"/>
                        <mxPoint x="-27.40000000000009" y="211.20000000000005" as="targetPoint"/>
                    </mxGeometry>
                </mxCell>
                <mxCell id="72" value="leaf" style="html=1;verticalAlign=bottom;endArrow=open;dashed=1;endSize=8;exitX=-0.09;exitY=0.983;fontFamily=Alegreya;exitDx=0;exitDy=0;exitPerimeter=0;entryX=1.045;entryY=0.875;entryDx=0;entryDy=0;entryPerimeter=0;" edge="1" parent="1" source="69" target="65">
                    <mxGeometry relative="1" as="geometry">
                        <mxPoint x="-160" y="260" as="targetPoint"/>
                        <mxPoint x="-37" y="260" as="sourcePoint"/>
                    </mxGeometry>
                </mxCell>
            </root>
        </mxGraphModel>
    </diagram>
</mxfile>
